<svg width="40" height="40" viewBox="0 0 40 40" fill="none" xmlns="http://www.w3.org/2000/svg">
<path d="M33.3334 11.6668H31.3167C31.5334 10.9835 31.6667 10.1668 31.6667 9.16683C31.6667 5.95016 29.0501 3.3335 25.8334 3.3335C23.1334 3.3335 21.3334 5.80016 20.1667 8.4835C19.0167 5.96683 17.1167 3.3335 14.1667 3.3335C10.9501 3.3335 8.3334 5.95016 8.3334 9.16683C8.3334 10.1668 8.46673 10.9835 8.6834 11.6668H6.66673C4.8334 11.6668 3.3334 13.1668 3.3334 15.0002V18.3335C3.3334 20.1668 4.8334 21.6668 6.66673 21.6668V33.3335C6.66673 35.1668 8.16673 36.6668 10.0001 36.6668H30.0001C31.8334 36.6668 33.3334 35.1668 33.3334 33.3335V21.6668C35.1667 21.6668 36.6667 20.1668 36.6667 18.3335V15.0002C36.6667 13.1668 35.1667 11.6668 33.3334 11.6668ZM25.8334 6.66683C27.2167 6.66683 28.3334 7.7835 28.3334 9.16683C28.3334 11.6668 27.2834 11.6668 26.6667 11.6668H22.5334C23.3834 9.0335 24.6167 6.66683 25.8334 6.66683ZM11.6667 9.16683C11.6667 7.7835 12.7834 6.66683 14.1667 6.66683C15.6501 6.66683 17.0167 9.21683 17.8334 11.6668H13.3334C12.7167 11.6668 11.6667 11.6668 11.6667 9.16683ZM6.66673 15.0002H18.3334V18.3335H6.66673V15.0002ZM10.0001 33.3335V21.6668H18.3334V33.3335H10.0001ZM30.0001 33.3335H21.6667V21.6668H30.0001V33.3335ZM21.6667 18.3335V15.1335C21.6667 15.1335 21.6834 15.0335 21.7001 15.0002H33.3334V18.3335H21.6667Z" fill="#AD7555"/>
</svg>
