<svg width="40" height="40" viewBox="0 0 40 40" fill="none" xmlns="http://www.w3.org/2000/svg">
<path d="M31.7849 21.903L22.3566 31.333C21.7315 31.958 20.8838 32.309 19.9999 32.309C19.116 32.309 18.2683 31.958 17.6432 31.333L8.21489 21.9047C7.4355 21.1321 6.81639 20.2132 6.3931 19.2007C5.96981 18.1882 5.75067 17.1021 5.74827 16.0047C5.74586 14.9072 5.96024 13.8202 6.3791 12.8058C6.79795 11.7915 7.41303 10.8698 8.18902 10.0939C8.96502 9.31786 9.88664 8.70278 10.901 8.28393C11.9153 7.86507 13.0024 7.65069 14.0998 7.6531C15.1972 7.6555 16.2834 7.87464 17.2959 8.29793C18.3084 8.72122 19.2273 9.34033 19.9999 10.1197C21.5692 8.5895 23.6781 7.73916 25.8699 7.75289C28.0617 7.76662 30.1599 8.64333 31.7099 10.1931C33.2598 11.7428 34.1368 13.8409 34.1509 16.0327C34.1649 18.2245 33.3149 20.3336 31.7849 21.903Z" stroke="#AD7555" stroke-width="3.33333" stroke-linecap="round" stroke-linejoin="round"/>
</svg>
