<svg width="20" height="20" viewBox="0 0 20 20" fill="none" xmlns="http://www.w3.org/2000/svg">
<path d="M12.816 12.2005L13.196 11.823L12.3135 10.9363L11.9352 11.3138L12.816 12.2005ZM14.4702 11.6646L16.0627 12.5305L16.6585 11.4321L15.0668 10.5671L14.4702 11.6646ZM16.3685 14.2505L15.1852 15.428L16.066 16.3138L17.2493 15.1371L16.3685 14.2505ZM14.4635 15.8063C13.2552 15.9196 10.1302 15.8188 6.74517 12.4538L5.8635 13.3396C9.55683 17.0121 13.0727 17.1921 14.5802 17.0513L14.4635 15.8063ZM6.74517 12.4538C3.51933 9.24547 2.98433 6.54797 2.91766 5.37714L1.66933 5.44797C1.75266 6.92131 2.41517 9.91131 5.8635 13.3396L6.74517 12.4538ZM7.891 7.30381L8.13017 7.06547L7.25017 6.17964L7.011 6.41714L7.891 7.30381ZM8.32017 4.03631L7.27017 2.63297L6.26933 3.38297L7.31933 4.78547L8.32017 4.03631ZM3.736 2.32714L2.42767 3.62714L3.30933 4.51381L4.61683 3.21381L3.736 2.32714ZM7.451 6.86047C7.00933 6.41714 7.00933 6.41714 7.00933 6.41881H7.00767L7.00517 6.42214C6.96556 6.46207 6.93011 6.5059 6.89933 6.55297C6.85433 6.61964 6.80517 6.70714 6.7635 6.81797C6.66206 7.10408 6.63679 7.41165 6.69017 7.71047C6.80183 8.43131 7.2985 9.38381 8.57017 10.6488L9.45183 9.76214C8.261 8.57881 7.97767 7.85881 7.92517 7.51881C7.90017 7.35714 7.926 7.27714 7.9335 7.25881C7.9385 7.2477 7.9385 7.24603 7.9335 7.25381C7.92607 7.26531 7.91771 7.27618 7.9085 7.28631L7.90017 7.29464L7.89183 7.30214L7.451 6.86047ZM8.57017 10.6488C9.84267 11.9138 10.8002 12.4071 11.5218 12.5171C11.891 12.5738 12.1885 12.5288 12.4143 12.4446C12.5408 12.3984 12.659 12.332 12.7643 12.248L12.806 12.2105L12.8118 12.2055L12.8143 12.203L12.8152 12.2013C12.8152 12.2013 12.816 12.2005 12.3752 11.7571C11.9335 11.3138 11.936 11.313 11.936 11.313L11.9377 11.3113L11.9393 11.3096L11.9443 11.3055L11.9527 11.2971L11.9843 11.2721C11.9921 11.2671 11.9902 11.2677 11.9785 11.2738C11.9577 11.2813 11.876 11.3071 11.7118 11.2821C11.3668 11.2288 10.6418 10.9455 9.45183 9.76214L8.57017 10.6488ZM7.27017 2.63214C6.42017 1.49881 4.75016 1.31881 3.736 2.32714L4.61683 3.21381C5.06017 2.77297 5.84683 2.81881 6.26933 3.38297L7.27017 2.63214ZM2.9185 5.37797C2.90183 5.08964 3.03433 4.78797 3.30933 4.51464L2.42683 3.62797C1.97933 4.07297 1.62683 4.70297 1.66933 5.44797L2.9185 5.37797ZM15.1852 15.428C14.9568 15.6563 14.7102 15.7846 14.4643 15.8071L14.5802 17.0513C15.1927 16.9938 15.6935 16.6855 16.0668 16.3146L15.1852 15.428ZM8.13017 7.06547C8.951 6.24964 9.01183 4.96047 8.321 4.03714L7.32017 4.78631C7.656 5.23547 7.606 5.82464 7.24933 6.18047L8.13017 7.06547ZM16.0635 12.5313C16.7443 12.9013 16.8502 13.773 16.3693 14.2513L17.251 15.1371C18.3677 14.0263 18.0235 12.1738 16.6593 11.433L16.0635 12.5313ZM13.196 11.8238C13.516 11.5055 14.031 11.4271 14.471 11.6655L15.0677 10.568C14.1643 10.0763 13.0443 10.2121 12.3143 10.9371L13.196 11.8238Z" fill="#3E2A25"/>
</svg>
