<svg width="35" height="35" viewBox="0 0 35 35" fill="none" xmlns="http://www.w3.org/2000/svg">
<path d="M24.2086 8.4875C23.2119 7.34931 22.6626 5.88787 22.6627 4.375H18.1565V22.4583C18.1224 23.4372 17.7095 24.3645 17.0048 25.0447C16.3002 25.7249 15.3588 26.1048 14.3794 26.1042C12.3086 26.1042 10.5877 24.4125 10.5877 22.3125C10.5877 19.8042 13.0086 17.9229 15.5023 18.6958V14.0875C10.4711 13.4167 6.06689 17.325 6.06689 22.3125C6.06689 27.1687 10.0919 30.625 14.3648 30.625C18.944 30.625 22.6627 26.9062 22.6627 22.3125V13.1396C24.49 14.4519 26.6839 15.1559 28.9336 15.1521V10.6458C28.9336 10.6458 26.1919 10.7771 24.2086 8.4875Z" fill="#AD7555"/>
</svg>
