<svg width="35" height="35" viewBox="0 0 35 35" fill="none" xmlns="http://www.w3.org/2000/svg">
<path d="M11.3748 2.91669H23.6248C28.2915 2.91669 32.0832 6.70835 32.0832 11.375V23.625C32.0832 25.8683 31.192 28.0197 29.6058 29.606C28.0195 31.1922 25.8681 32.0834 23.6248 32.0834H11.3748C6.70817 32.0834 2.9165 28.2917 2.9165 23.625V11.375C2.9165 9.13173 3.80765 6.98032 5.39389 5.39408C6.98014 3.80783 9.13155 2.91669 11.3748 2.91669ZM11.0832 5.83335C9.69078 5.83335 8.35543 6.38648 7.37086 7.37104C6.38629 8.35561 5.83317 9.69097 5.83317 11.0834V23.9167C5.83317 26.8188 8.18109 29.1667 11.0832 29.1667H23.9165C25.3089 29.1667 26.6442 28.6136 27.6288 27.629C28.6134 26.6444 29.1665 25.3091 29.1665 23.9167V11.0834C29.1665 8.18127 26.8186 5.83335 23.9165 5.83335H11.0832ZM25.1561 8.02085C25.6396 8.02085 26.1032 8.21291 26.4451 8.55477C26.7869 8.89664 26.979 9.3603 26.979 9.84377C26.979 10.3272 26.7869 10.7909 26.4451 11.1328C26.1032 11.4746 25.6396 11.6667 25.1561 11.6667C24.6726 11.6667 24.209 11.4746 23.8671 11.1328C23.5252 10.7909 23.3332 10.3272 23.3332 9.84377C23.3332 9.3603 23.5252 8.89664 23.8671 8.55477C24.209 8.21291 24.6726 8.02085 25.1561 8.02085ZM17.4998 10.2084C19.4337 10.2084 21.2884 10.9766 22.6558 12.344C24.0233 13.7115 24.7915 15.5661 24.7915 17.5C24.7915 19.4339 24.0233 21.2886 22.6558 22.656C21.2884 24.0235 19.4337 24.7917 17.4998 24.7917C15.566 24.7917 13.7113 24.0235 12.3439 22.656C10.9764 21.2886 10.2082 19.4339 10.2082 17.5C10.2082 15.5661 10.9764 13.7115 12.3439 12.344C13.7113 10.9766 15.566 10.2084 17.4998 10.2084ZM17.4998 13.125C16.3395 13.125 15.2267 13.586 14.4062 14.4064C13.5858 15.2269 13.1248 16.3397 13.1248 17.5C13.1248 18.6603 13.5858 19.7731 14.4062 20.5936C15.2267 21.4141 16.3395 21.875 17.4998 21.875C18.6602 21.875 19.773 21.4141 20.5934 20.5936C21.4139 19.7731 21.8748 18.6603 21.8748 17.5C21.8748 16.3397 21.4139 15.2269 20.5934 14.4064C19.773 13.586 18.6602 13.125 17.4998 13.125Z" fill="#AD7555"/>
</svg>
