<svg width="20" height="20" viewBox="0 0 20 20" fill="none" xmlns="http://www.w3.org/2000/svg">
<path d="M3.33335 16.6666C2.87502 16.6666 2.4828 16.5035 2.15669 16.1774C1.83058 15.8513 1.66724 15.4588 1.66669 14.9999V4.99992C1.66669 4.54159 1.83002 4.14936 2.15669 3.82325C2.48335 3.49714 2.87558 3.33381 3.33335 3.33325H16.6667C17.125 3.33325 17.5175 3.49659 17.8442 3.82325C18.1709 4.14992 18.3339 4.54214 18.3334 4.99992V14.9999C18.3334 15.4583 18.1703 15.8508 17.8442 16.1774C17.5181 16.5041 17.1256 16.6671 16.6667 16.6666H3.33335ZM16.6667 6.66658L10.4375 10.5624C10.3681 10.6041 10.2953 10.6355 10.2192 10.6566C10.1431 10.6777 10.07 10.688 10 10.6874C9.93002 10.6869 9.85724 10.6766 9.78169 10.6566C9.70613 10.6366 9.63308 10.6052 9.56252 10.5624L3.33335 6.66658V14.9999H16.6667V6.66658ZM10 9.16658L16.6667 4.99992H3.33335L10 9.16658ZM3.33335 6.87492V5.64575V5.66659V5.65659V6.87492Z" fill="#3E2A25"/>
</svg>
