<svg width="25" height="25" viewBox="0 0 25 25" fill="none" xmlns="http://www.w3.org/2000/svg">
<path d="M12.1094 7.81238C12.0335 7.81235 11.9592 7.83443 11.8957 7.87591C11.8321 7.91739 11.7821 7.97649 11.7516 8.04597C11.7101 8.1405 11.7594 8.24441 11.8328 8.31707L12.2234 8.70769C12.2597 8.74407 12.3028 8.77293 12.3503 8.79262C12.3977 8.81231 12.4486 8.82245 12.5 8.82245C12.5514 8.82245 12.6022 8.81231 12.6497 8.79262C12.6972 8.77293 12.7403 8.74407 12.7766 8.70769L13.1672 8.31707C13.2398 8.24441 13.2898 8.1405 13.2484 8.04597C13.2179 7.97649 13.1678 7.91739 13.1043 7.87591C13.0407 7.83443 12.9665 7.81235 12.8906 7.81238H12.1094Z" fill="#FEE2C9"/>
<path d="M7.03129 3.57029C7.03129 3.98826 7.16254 4.37576 7.38598 4.69373C6.69301 5.60467 6.25004 6.70623 6.25004 7.93123C6.25004 9.66248 6.95395 10.8203 8.09145 11.5445L2.81098 14.5929C2.28529 14.8959 1.89758 15.391 1.7294 15.974C1.56123 16.5569 1.62569 17.1824 1.90924 17.7188C2.19278 18.2553 2.67331 18.6608 3.24974 18.8502C3.82618 19.0396 4.4536 18.9981 5.00004 18.7344C4.81736 19.1723 4.75176 19.6501 4.8097 20.1211C4.86764 20.592 5.04713 21.0397 5.33051 21.4203L6.02973 22.3601C6.28436 22.7025 6.6156 22.9806 6.99693 23.1721C7.37827 23.3635 7.79912 23.4631 8.22583 23.4628C8.65253 23.4625 9.07325 23.3623 9.45431 23.1703C9.83537 22.9783 10.1662 22.6998 10.4204 22.357C11.0885 22.592 11.7918 22.7116 12.5 22.7109C13.2321 22.7109 13.9344 22.5859 14.5868 22.3539C14.8406 22.6971 15.1713 22.9762 15.5524 23.1686C15.9335 23.3611 16.3544 23.4617 16.7813 23.4623C17.2082 23.4629 17.6293 23.3635 18.011 23.1721C18.3926 22.9807 18.7241 22.7027 18.979 22.3601L19.679 21.4203C19.9629 21.0389 20.1425 20.5901 20.2001 20.1181C20.2576 19.6461 20.1911 19.1673 20.0071 18.7289C20.548 19.0014 21.1733 19.054 21.7521 18.8755C22.3309 18.6971 22.8181 18.3016 23.1117 17.7718C23.4052 17.2421 23.4823 16.6193 23.3268 16.0339C23.1713 15.4486 22.7952 14.9462 22.2774 14.632L17.0563 11.4461C18.1063 10.7187 18.75 9.5867 18.75 7.93123C18.75 6.70623 18.3071 5.60467 17.6141 4.69373C17.9116 4.27558 18.0326 3.75713 17.9509 3.25048C17.8692 2.74382 17.5914 2.28968 17.1775 1.98625C16.7636 1.68282 16.2469 1.55447 15.7392 1.62897C15.2314 1.70347 14.7734 1.97482 14.4641 2.38436C13.8032 2.13983 13.1305 2.00779 12.5 2.00779C11.8696 2.00779 11.1969 2.13983 10.536 2.38436C10.288 2.05997 9.94449 1.82147 9.55388 1.70241C9.16328 1.58335 8.74518 1.58971 8.35838 1.7206C7.97158 1.85149 7.63553 2.10032 7.39748 2.43211C7.15944 2.76389 7.03137 3.16195 7.03129 3.57029ZM8.98442 2.39842C9.29379 2.39842 9.57504 2.51873 9.78442 2.71404C9.09569 3.06379 8.46785 3.52228 7.92504 4.07186C7.84045 3.89322 7.80241 3.69609 7.81447 3.4988C7.82653 3.30151 7.88829 3.11048 7.99401 2.94348C8.09973 2.77647 8.24598 2.63892 8.41914 2.54363C8.59231 2.44833 8.78676 2.39838 8.98442 2.39842ZM16.4063 17.275C15.964 17.465 15.5797 17.7685 15.2922 18.1547L14.5922 19.0945C14.2204 19.5941 14.0302 20.2057 14.0532 20.8281C13.5766 21.0344 13.0516 21.1484 12.5 21.1484C11.9516 21.1484 11.4297 21.0359 10.9563 20.832C10.9802 20.2083 10.79 19.5952 10.4172 19.0945L9.71723 18.1547C9.42771 17.7657 9.03999 17.4608 8.59379 17.2711V17.2422C8.59379 16.2062 9.00534 15.2126 9.73791 14.48C10.4705 13.7475 11.464 13.3359 12.5 13.3359C13.536 13.3359 14.5296 13.7475 15.2622 14.48C15.9947 15.2126 16.4063 16.2062 16.4063 17.2422V17.275ZM17.1875 3.57029C17.1875 3.74998 17.1469 3.92029 17.075 4.07186C16.5322 3.52228 15.9044 3.06379 15.2157 2.71404C15.3826 2.55814 15.5914 2.45439 15.8164 2.41556C16.0415 2.37673 16.2729 2.4045 16.4824 2.49546C16.6919 2.58642 16.8702 2.73661 16.9955 2.92757C17.1208 3.11852 17.1875 3.34192 17.1875 3.57029ZM10.5469 7.03123C10.4433 7.03123 10.344 6.99008 10.2707 6.91682C10.1974 6.84356 10.1563 6.74421 10.1563 6.64061C10.1563 6.53701 10.1974 6.43765 10.2707 6.36439C10.344 6.29114 10.4433 6.24998 10.5469 6.24998C10.6505 6.24998 10.7499 6.29114 10.8231 6.36439C10.8964 6.43765 10.9375 6.53701 10.9375 6.64061C10.9375 6.74421 10.8964 6.84356 10.8231 6.91682C10.7499 6.99008 10.6505 7.03123 10.5469 7.03123ZM12.5 11.3281C10.9899 11.3281 9.76567 10.0625 9.76567 8.98436C9.76567 7.90623 10.9899 7.03123 12.5 7.03123C14.0102 7.03123 15.2344 7.90623 15.2344 8.98436C15.2344 10.0625 14.0102 11.3281 12.5 11.3281ZM14.8438 6.64061C14.8438 6.74421 14.8026 6.84356 14.7294 6.91682C14.6561 6.99008 14.5568 7.03123 14.4532 7.03123C14.3496 7.03123 14.2502 6.99008 14.177 6.91682C14.1037 6.84356 14.0625 6.74421 14.0625 6.64061C14.0625 6.53701 14.1037 6.43765 14.177 6.36439C14.2502 6.29114 14.3496 6.24998 14.4532 6.24998C14.5568 6.24998 14.6561 6.29114 14.7294 6.36439C14.8026 6.43765 14.8438 6.53701 14.8438 6.64061ZM8.80004 18.8672L9.50004 19.8078C9.62259 19.9724 9.71152 20.1595 9.76175 20.3585C9.81197 20.5575 9.82251 20.7644 9.79277 20.9675C9.76303 21.1705 9.69358 21.3658 9.58839 21.542C9.48321 21.7182 9.34434 21.872 9.17973 21.9945C9.01512 22.1171 8.82798 22.206 8.62899 22.2562C8.43001 22.3064 8.22309 22.317 8.02003 22.2872C7.81698 22.2575 7.62177 22.188 7.44555 22.0829C7.26933 21.9777 7.11556 21.8388 6.99301 21.6742L6.29301 20.7336C6.04561 20.4011 5.94042 19.984 6.00056 19.574C6.0607 19.164 6.28126 18.7946 6.61371 18.5472C6.94617 18.2998 7.36328 18.1947 7.7733 18.2548C8.18331 18.3149 8.55265 18.5347 8.80004 18.8672ZM16.2094 18.8679C16.332 18.7034 16.4858 18.5646 16.6621 18.4595C16.8383 18.3543 17.0335 18.285 17.2366 18.2553C17.4397 18.2256 17.6466 18.2362 17.8455 18.2865C18.0445 18.3368 18.2316 18.4258 18.3961 18.5484C18.5607 18.671 18.6995 18.8248 18.8046 19.0011C18.9097 19.1773 18.9791 19.3725 19.0088 19.5756C19.0385 19.7787 19.0278 19.9856 18.9776 20.1845C18.9273 20.3835 18.8383 20.5706 18.7157 20.7351L18.0165 21.675C17.8939 21.8396 17.7401 21.9785 17.5639 22.0836C17.3877 22.1888 17.1925 22.2583 16.9894 22.288C16.7864 22.3178 16.5794 22.3072 16.3805 22.257C16.1815 22.2068 15.9943 22.1178 15.8297 21.9953C15.6651 21.8727 15.5263 21.719 15.4211 21.5428C15.3159 21.3665 15.2464 21.1713 15.2167 20.9683C15.1869 20.7652 15.1975 20.5583 15.2477 20.3593C15.2979 20.1603 15.3869 19.9732 15.5094 19.8086L16.2094 18.8679Z" fill="#FEE2C9"/>
</svg>
