<svg width="25" height="25" viewBox="0 0 25 25" fill="none" xmlns="http://www.w3.org/2000/svg">
<path d="M19.8656 13.6896L13.9729 19.5833C13.5822 19.9739 13.0524 20.1933 12.5 20.1933C11.9475 20.1933 11.4177 19.9739 11.027 19.5833L5.13433 13.6906C4.64722 13.2077 4.26027 12.6334 3.99572 12.0006C3.73116 11.3678 3.5942 10.6889 3.59269 10.0031C3.59119 9.31718 3.72518 8.63775 3.98696 8.00378C4.24875 7.36982 4.63317 6.79381 5.11817 6.30881C5.60316 5.82382 6.17918 5.43939 6.81314 5.17761C7.44711 4.91582 8.12653 4.78184 8.81242 4.78334C9.49831 4.78484 10.1771 4.9218 10.81 5.18636C11.4428 5.45092 12.0171 5.83786 12.5 6.32498C13.4808 5.36859 14.7989 4.83713 16.1687 4.84571C17.5386 4.85429 18.85 5.40223 19.8187 6.37083C20.7874 7.33943 21.3356 8.6507 21.3443 10.0206C21.3531 11.3904 20.8218 12.7086 19.8656 13.6896Z" stroke="#AD7555" stroke-width="2.08333" stroke-linecap="round" stroke-linejoin="round"/>
</svg>
