<svg width="25" height="25" viewBox="0 0 25 25" fill="none" xmlns="http://www.w3.org/2000/svg">
<path d="M21.5729 7.33325C21.2187 7.68742 20.875 8.03117 20.8646 8.37492C20.8333 8.70825 21.1875 9.052 21.5208 9.37492C22.0208 9.89575 22.5104 10.3645 22.4896 10.8749C22.4688 11.3853 21.9375 11.9166 21.4062 12.4374L17.1042 16.7499L15.625 15.2708L20.0521 10.8541L19.0521 9.85408L17.5729 11.3228L13.6667 7.41658L17.6667 3.427C18.0729 3.02075 18.75 3.02075 19.1354 3.427L21.5729 5.8645C21.9792 6.24992 21.9792 6.927 21.5729 7.33325ZM3.125 17.9687L13.0833 7.99992L16.9896 11.9062L7.03125 21.8749H3.125V17.9687Z" fill="#FEE2C9"/>
</svg>
