<svg width="53" height="53" viewBox="0 0 53 53" fill="none" xmlns="http://www.w3.org/2000/svg">
<path fill-rule="evenodd" clip-rule="evenodd" d="M35.5952 22.47C35.5952 24.7906 34.6733 27.0162 33.0324 28.6572C31.3915 30.2981 29.1659 31.22 26.8452 31.22C24.5246 31.22 22.299 30.2981 20.658 28.6572C19.0171 27.0162 18.0952 24.7906 18.0952 22.47C18.0952 20.1494 19.0171 17.9238 20.658 16.2828C22.299 14.6419 24.5246 13.72 26.8452 13.72C29.1659 13.72 31.3915 14.6419 33.0324 16.2828C34.6733 17.9238 35.5952 20.1494 35.5952 22.47ZM31.2202 22.47C31.2202 23.6303 30.7593 24.7431 29.9388 25.5636C29.1183 26.3841 28.0055 26.845 26.8452 26.845C25.6849 26.845 24.5721 26.3841 23.7516 25.5636C22.9311 24.7431 22.4702 23.6303 22.4702 22.47C22.4702 21.3097 22.9311 20.1969 23.7516 19.3764C24.5721 18.5559 25.6849 18.095 26.8452 18.095C28.0055 18.095 29.1183 18.5559 29.9388 19.3764C30.7593 20.1969 31.2202 21.3097 31.2202 22.47Z" fill="#AD7555"/>
<path fill-rule="evenodd" clip-rule="evenodd" d="M12.6744 36.1331C9.85434 33.4481 7.89383 29.9872 7.04077 26.1879C6.18771 22.3887 6.48042 18.4218 7.88188 14.7889C9.28334 11.156 11.7306 8.02031 14.9142 5.77829C18.0978 3.53627 21.8747 2.28865 25.7674 2.1932C29.6601 2.09775 33.4936 3.15876 36.7833 5.24205C40.0729 7.32534 42.6709 10.3373 44.2488 13.8972C45.8266 17.457 46.3134 21.4048 45.6475 25.2413C44.9817 29.0777 43.1932 32.6306 40.5081 35.4506L26.9325 49.7088L12.6744 36.1331ZM37.3406 32.4341L26.7816 43.5247L15.6909 32.9656C13.4977 30.8773 11.9729 28.1855 11.3095 25.2306C10.646 22.2757 10.8737 19.1904 11.9637 16.3649C13.0537 13.5394 14.957 11.1005 17.4331 9.35673C19.9091 7.61294 22.8466 6.64252 25.8742 6.56818C28.9017 6.49385 31.8833 7.31893 34.442 8.93911C37.0006 10.5593 39.0214 12.9018 40.2487 15.6704C41.476 18.439 41.8548 21.5094 41.3372 24.4933C40.8196 27.4772 39.4288 30.2406 37.3406 32.4341Z" fill="#AD7555"/>
</svg>
