<svg width="53" height="53" viewBox="0 0 53 53" fill="none" xmlns="http://www.w3.org/2000/svg">
<path d="M30.2575 36.2425C30.7093 36.45 31.2183 36.4974 31.7006 36.3769C32.1829 36.2564 32.6098 35.9752 32.9109 35.5797L33.6875 34.5625C34.095 34.0191 34.6234 33.5781 35.2309 33.2744C35.8384 32.9706 36.5083 32.8125 37.1875 32.8125H43.75C44.9103 32.8125 46.0231 33.2734 46.8436 34.0939C47.6641 34.9144 48.125 36.0272 48.125 37.1875V43.75C48.125 44.9103 47.6641 46.0231 46.8436 46.8436C46.0231 47.6641 44.9103 48.125 43.75 48.125C33.3071 48.125 23.2919 43.9766 15.9077 36.5923C8.52343 29.2081 4.375 19.1929 4.375 8.75C4.375 7.58968 4.83594 6.47688 5.65641 5.65641C6.47688 4.83594 7.58968 4.375 8.75 4.375H15.3125C16.4728 4.375 17.5856 4.83594 18.4061 5.65641C19.2266 6.47688 19.6875 7.58968 19.6875 8.75V15.3125C19.6875 15.9917 19.5294 16.6616 19.2256 17.2691C18.9219 17.8766 18.4809 18.405 17.9375 18.8125L16.9137 19.5803C16.5122 19.887 16.2291 20.3232 16.1127 20.8148C15.9962 21.3065 16.0536 21.8233 16.275 22.2775C19.2646 28.3497 24.1816 33.2605 30.2575 36.2425Z" stroke="#AD7555" stroke-width="3.9375" stroke-linecap="round" stroke-linejoin="round"/>
</svg>
