<svg width="53" height="53" viewBox="0 0 53 53" fill="none" xmlns="http://www.w3.org/2000/svg">
<path d="M8.75 43.7498C7.54687 43.7498 6.51729 43.3218 5.66125 42.4657C4.80521 41.6097 4.37646 40.5794 4.375 39.3748V13.1248C4.375 11.9217 4.80375 10.8921 5.66125 10.036C6.51875 9.17999 7.54833 8.75124 8.75 8.74979H43.75C44.9531 8.74979 45.9834 9.17854 46.8409 10.036C47.6984 10.8935 48.1265 11.9231 48.125 13.1248V39.3748C48.125 40.5779 47.697 41.6082 46.8409 42.4657C45.9849 43.3232 44.9546 43.7512 43.75 43.7498H8.75ZM43.75 17.4998L27.3984 27.7263C27.2161 27.8357 27.0251 27.9181 26.8253 27.9735C26.6255 28.029 26.4337 28.0559 26.25 28.0545C26.0663 28.053 25.8752 28.026 25.6769 27.9735C25.4785 27.921 25.2868 27.8386 25.1016 27.7263L8.75 17.4998V39.3748H43.75V17.4998ZM26.25 24.0623L43.75 13.1248H8.75L26.25 24.0623ZM8.75 18.0467V14.8201V14.8748V14.8485V18.0467Z" fill="#AD7555"/>
</svg>
