<svg width="25" height="25" viewBox="0 0 25 25" fill="none" xmlns="http://www.w3.org/2000/svg">
<path d="M12.5 13.2813C18.5156 13.2813 23.4375 17.1875 23.4375 20.3125C23.4375 21.1413 23.1083 21.9362 22.5222 22.5222C21.9362 23.1083 21.1413 23.4375 20.3125 23.4375H4.6875C3.8587 23.4375 3.06384 23.1083 2.47779 22.5222C1.89174 21.9362 1.5625 21.1413 1.5625 20.3125C1.5625 17.1875 6.48438 13.2813 12.5 13.2813ZM12.5 15.625C9.98438 15.625 7.7125 16.4469 6.10625 17.5531C4.37188 18.7516 3.90625 19.8953 3.90625 20.3125C3.90625 20.5197 3.98856 20.7184 4.13507 20.8649C4.28159 21.0114 4.4803 21.0938 4.6875 21.0938H20.3125C20.5197 21.0938 20.7184 21.0114 20.8649 20.8649C21.0114 20.7184 21.0938 20.5197 21.0938 20.3125C21.0938 19.8953 20.6297 18.75 18.8938 17.5531C17.2875 16.4469 15.0141 15.625 12.5 15.625ZM12.5 1.5625C13.9504 1.5625 15.3414 2.13867 16.367 3.16426C17.3926 4.18985 17.9688 5.58085 17.9688 7.03125C17.9688 8.48165 17.3926 9.87265 16.367 10.8982C15.3414 11.9238 13.9504 12.5 12.5 12.5C11.0496 12.5 9.6586 11.9238 8.63301 10.8982C7.60742 9.87265 7.03125 8.48165 7.03125 7.03125C7.03125 5.58085 7.60742 4.18985 8.63301 3.16426C9.6586 2.13867 11.0496 1.5625 12.5 1.5625ZM12.5 3.90625C11.6712 3.90625 10.8763 4.23549 10.2903 4.82154C9.70424 5.40759 9.375 6.20245 9.375 7.03125C9.375 7.86005 9.70424 8.65491 10.2903 9.24096C10.8763 9.82701 11.6712 10.1563 12.5 10.1563C13.3288 10.1563 14.1237 9.82701 14.7097 9.24096C15.2958 8.65491 15.625 7.86005 15.625 7.03125C15.625 6.20245 15.2958 5.40759 14.7097 4.82154C14.1237 4.23549 13.3288 3.90625 12.5 3.90625Z" fill="black"/>
</svg>
