<svg width="25" height="25" viewBox="0 0 25 25" fill="none" xmlns="http://www.w3.org/2000/svg">
<path d="M5.82067 22.305C5.41234 21.8967 5.20817 21.406 5.20817 20.8331C5.20817 20.2602 5.41234 19.7699 5.82067 19.3623C6.22901 18.9547 6.71929 18.7505 7.29151 18.7498C7.86373 18.7491 8.35436 18.9533 8.76338 19.3623C9.17241 19.7713 9.37623 20.2616 9.37484 20.8331C9.37345 21.4047 9.16963 21.8953 8.76338 22.305C8.35713 22.7147 7.86651 22.9185 7.29151 22.9165C6.71651 22.9144 6.22623 22.7106 5.82067 22.305ZM16.2373 22.305C15.829 21.8967 15.6248 21.406 15.6248 20.8331C15.6248 20.2602 15.829 19.7699 16.2373 19.3623C16.6457 18.9547 17.136 18.7505 17.7082 18.7498C18.2804 18.7491 18.771 18.9533 19.1801 19.3623C19.5891 19.7713 19.7929 20.2616 19.7915 20.8331C19.7901 21.4047 19.5863 21.8953 19.1801 22.305C18.7738 22.7147 18.2832 22.9185 17.7082 22.9165C17.1332 22.9144 16.6429 22.7106 16.2373 22.305ZM6.40609 6.2498L8.90609 11.4581H16.1978L19.0623 6.2498H6.40609ZM5.41651 4.16646H20.7811C21.1804 4.16646 21.4842 4.34459 21.6926 4.70084C21.9009 5.05709 21.9096 5.41716 21.7186 5.78105L18.0207 12.4477C17.8297 12.7949 17.5738 13.064 17.253 13.255C16.9321 13.446 16.5804 13.5415 16.1978 13.5415H8.43734L7.29151 15.6248H18.7498C19.045 15.6248 19.2926 15.7248 19.4925 15.9248C19.6926 16.1248 19.7922 16.372 19.7915 16.6665C19.7908 16.9609 19.6908 17.2085 19.4915 17.4092C19.2922 17.6099 19.045 17.7095 18.7498 17.7081H7.29151C6.51026 17.7081 5.91998 17.3654 5.52067 16.68C5.12137 15.9946 5.10401 15.313 5.46859 14.6352L6.87484 12.0831L3.12484 4.16646H2.08317C1.78804 4.16646 1.54081 4.06646 1.34151 3.86646C1.1422 3.66646 1.0422 3.41924 1.04151 3.1248C1.04081 2.83035 1.14081 2.58313 1.34151 2.38313C1.5422 2.18313 1.78942 2.08313 2.08317 2.08313H3.77588C3.96685 2.08313 4.14915 2.13521 4.32276 2.23938C4.49637 2.34355 4.62658 2.49112 4.71338 2.68209L5.41651 4.16646Z" fill="black"/>
</svg>
