<svg width="25" height="25" viewBox="0 0 25 25" fill="none" xmlns="http://www.w3.org/2000/svg">
<path d="M5.82081 22.3054C5.41248 21.897 5.20831 21.4064 5.20831 20.8335C5.20831 20.2606 5.41248 19.7703 5.82081 19.3627C6.22915 18.955 6.71942 18.7509 7.29165 18.7502C7.86387 18.7495 8.35449 18.9536 8.76352 19.3627C9.17255 19.7717 9.37637 20.262 9.37498 20.8335C9.37359 21.405 9.16977 21.8956 8.76352 22.3054C8.35727 22.7151 7.86665 22.9189 7.29165 22.9168C6.71665 22.9147 6.22637 22.7109 5.82081 22.3054ZM16.2375 22.3054C15.8291 21.897 15.625 21.4064 15.625 20.8335C15.625 20.2606 15.8291 19.7703 16.2375 19.3627C16.6458 18.955 17.1361 18.7509 17.7083 18.7502C18.2805 18.7495 18.7712 18.9536 19.1802 19.3627C19.5892 19.7717 19.793 20.262 19.7916 20.8335C19.7903 21.405 19.5864 21.8956 19.1802 22.3054C18.7739 22.7151 18.2833 22.9189 17.7083 22.9168C17.1333 22.9147 16.643 22.7109 16.2375 22.3054ZM6.40623 6.25016L8.90623 11.4585H16.1979L19.0625 6.25016H6.40623ZM5.41665 4.16683H20.7812C21.1805 4.16683 21.4844 4.34495 21.6927 4.7012C21.901 5.05745 21.9097 5.41752 21.7187 5.78141L18.0208 12.4481C17.8298 12.7953 17.5739 13.0644 17.2531 13.2554C16.9323 13.4463 16.5805 13.5418 16.1979 13.5418H8.43748L7.29165 15.6252H18.75C19.0451 15.6252 19.2927 15.7252 19.4927 15.9252C19.6927 16.1252 19.7923 16.3724 19.7916 16.6668C19.791 16.9613 19.691 17.2088 19.4916 17.4095C19.2923 17.6102 19.0451 17.7099 18.75 17.7085H7.29165C6.5104 17.7085 5.92012 17.3658 5.52081 16.6804C5.12151 15.995 5.10415 15.3134 5.46873 14.6356L6.87498 12.0835L3.12498 4.16683H2.08331C1.78817 4.16683 1.54095 4.06683 1.34164 3.86683C1.14234 3.66683 1.04234 3.41961 1.04164 3.12516C1.04095 2.83072 1.14095 2.5835 1.34164 2.3835C1.54234 2.1835 1.78956 2.0835 2.08331 2.0835H3.77602C3.96699 2.0835 4.14928 2.13558 4.3229 2.23975C4.49651 2.34391 4.62671 2.49148 4.71352 2.68245L5.41665 4.16683Z" fill="#FEE2C9"/>
</svg>
