<svg width="40" height="40" viewBox="0 0 40 40" fill="none" xmlns="http://www.w3.org/2000/svg">
<path d="M31.8334 12.9998C31.2001 12.1665 30.2167 11.6665 29.1667 11.6665H25.0001V9.99984C25.0001 8.1665 23.5001 6.6665 21.6667 6.6665H6.66673C4.8334 6.6665 3.3334 8.1665 3.3334 9.99984V26.6665C3.3334 28.4998 4.8334 29.9998 6.66673 29.9998C6.66673 32.7498 8.91673 34.9998 11.6667 34.9998C14.4167 34.9998 16.6667 32.7498 16.6667 29.9998H23.3334C23.3334 32.7498 25.5834 34.9998 28.3334 34.9998C31.0834 34.9998 33.3334 32.7498 33.3334 29.9998C35.1667 29.9998 36.6667 28.4998 36.6667 26.6665V20.5498C36.6667 19.8332 36.4334 19.1165 36.0001 18.5498L31.8334 12.9998ZM29.1667 14.9998L31.6667 18.3332H25.0001V14.9998H29.1667ZM11.6667 31.6665C11.3742 31.6662 11.0869 31.589 10.8335 31.4429C10.5801 31.2967 10.3695 31.0866 10.2227 30.8335C10.0759 30.5805 9.99813 30.2934 9.99708 30.0008C9.99604 29.7083 10.0718 29.4206 10.2167 29.1665C10.8334 28.1165 12.4834 28.1165 13.1001 29.1665C13.2501 29.4165 13.3167 29.6998 13.3167 29.9832C13.3167 30.8998 12.5667 31.6498 11.6501 31.6498L11.6667 31.6665ZM15.3834 26.6665C15.3834 26.6665 15.3001 26.5832 15.2501 26.5498C15.1501 26.4498 15.0501 26.3665 14.9667 26.2832C14.7667 26.0998 14.5501 25.9332 14.3334 25.7998C13.9847 25.5765 13.6096 25.3974 13.2167 25.2665C13.1001 25.2332 12.9834 25.1832 12.8667 25.1498C12.4834 25.0498 12.0834 24.9998 11.6667 24.9998C11.0417 24.9998 10.8501 25.0665 10.4667 25.1498C10.3501 25.1832 10.2334 25.2332 10.1167 25.2665C9.85006 25.3498 9.60006 25.4498 9.36673 25.5832C9.25006 25.6498 9.11673 25.7165 9.00006 25.7998C8.7834 25.9498 8.56673 26.0998 8.36673 26.2832C8.26673 26.3665 8.16673 26.4498 8.06673 26.5498C8.0334 26.5998 7.9834 26.6165 7.9334 26.6665H6.65006V9.99984H21.6501V26.6665H15.3667H15.3834ZM28.3334 31.6665C28.0409 31.6662 27.7535 31.589 27.5001 31.4429C27.2467 31.2967 27.0361 31.0866 26.8894 30.8335C26.7426 30.5805 26.6648 30.2934 26.6637 30.0008C26.6627 29.7083 26.7384 29.4206 26.8834 29.1665C27.5001 28.1165 29.1501 28.1165 29.7667 29.1665C29.9167 29.4165 29.9834 29.6998 29.9834 29.9832C29.9834 30.8998 29.2334 31.6498 28.3167 31.6498L28.3334 31.6665ZM33.3334 26.6665H32.0501C32.0501 26.6665 31.9667 26.5832 31.9167 26.5498C31.8167 26.4498 31.7167 26.3665 31.6334 26.2832C31.4334 26.0998 31.2167 25.9332 31.0001 25.7998C30.6514 25.5765 30.2763 25.3974 29.8834 25.2665C29.7667 25.2332 29.6501 25.1832 29.5334 25.1498C29.1501 25.0498 28.7501 24.9998 28.3334 24.9998C27.7084 24.9998 27.5501 25.0665 27.1667 25.1498C27.0667 25.1665 26.9667 25.1998 26.8667 25.2332C26.5667 25.3332 26.2667 25.4498 26.0001 25.5998L25.8001 25.6998C25.5167 25.8665 25.2501 26.0498 25.0001 26.2832V21.6832H33.3334V26.6832V26.6665Z" fill="#AD7555"/>
</svg>
