<svg width="40" height="40" viewBox="0 0 40 40" fill="none" xmlns="http://www.w3.org/2000/svg">
<path d="M27.135 17.1349C27.3697 16.9002 27.5016 16.5819 27.5016 16.2499C27.5016 15.918 27.3697 15.5997 27.135 15.3649C26.9003 15.1302 26.5819 14.9984 26.25 14.9984C25.9181 14.9984 25.5997 15.1302 25.365 15.3649L18.75 21.9824L15.885 19.1149C15.7688 18.9987 15.6308 18.9065 15.479 18.8436C15.3271 18.7807 15.1644 18.7484 15 18.7484C14.8356 18.7484 14.6729 18.7807 14.521 18.8436C14.3692 18.9065 14.2312 18.9987 14.115 19.1149C13.9988 19.2312 13.9066 19.3691 13.8437 19.521C13.7808 19.6728 13.7484 19.8356 13.7484 19.9999C13.7484 20.1643 13.7808 20.3271 13.8437 20.4789C13.9066 20.6308 13.9988 20.7687 14.115 20.8849L17.865 24.6349C17.9811 24.7514 18.1191 24.8437 18.2709 24.9067C18.4228 24.9697 18.5856 25.0022 18.75 25.0022C18.9144 25.0022 19.0772 24.9697 19.2291 24.9067C19.3809 24.8437 19.5189 24.7514 19.635 24.6349L27.135 17.1349ZM20.885 5.36745C20.6506 5.13311 20.3327 5.00146 20.0013 5.00146C19.6698 5.00146 19.3519 5.13311 19.1175 5.36745C16.01 8.46995 12.575 9.99995 8.75 9.99995C8.41848 9.99995 8.10054 10.1316 7.86612 10.3661C7.6317 10.6005 7.5 10.9184 7.5 11.2499V18.7524C7.5 26.7999 11.6025 32.2699 19.605 34.9349C19.8614 35.0203 20.1386 35.0203 20.395 34.9349C28.395 32.2699 32.5 26.7999 32.5 18.7524V11.2499C32.5 10.9184 32.3683 10.6005 32.1339 10.3661C31.8995 10.1316 31.5815 9.99995 31.25 9.99995C27.4225 9.99995 23.985 8.47495 20.885 5.36745ZM10 12.4499C13.7 12.1699 17.035 10.6349 20 7.96995C22.9625 10.6349 26.3 12.1699 30 12.4499V18.7499C30 22.3349 29.0925 25.1624 27.4475 27.3599C25.8525 29.4899 23.425 31.2174 20 32.4274C16.575 31.2199 14.1475 29.4899 12.5525 27.3599C10.9075 25.1624 10 22.3374 10 18.7524V12.4499Z" fill="#AD7555"/>
</svg>
