<svg width="15" height="15" viewBox="0 0 15 15" fill="none" xmlns="http://www.w3.org/2000/svg">
<path d="M11.2235 7.73416L7.8943 11.064C7.67358 11.2846 7.37425 11.4086 7.06214 11.4086C6.75004 11.4086 6.45071 11.2846 6.22999 11.064L2.90077 7.73475C2.62557 7.46194 2.40696 7.13747 2.25749 6.77995C2.10802 6.42243 2.03064 6.0389 2.02979 5.6514C2.02894 5.26389 2.10464 4.88003 2.25254 4.52186C2.40044 4.16369 2.61763 3.83826 2.89164 3.56425C3.16565 3.29024 3.49108 3.07305 3.84925 2.92515C4.20743 2.77725 4.59128 2.70155 4.97879 2.7024C5.3663 2.70325 5.74982 2.78063 6.10734 2.93009C6.46486 3.07956 6.78934 3.29817 7.06214 3.57338C7.61627 3.03305 8.36096 2.73279 9.1349 2.73764C9.90884 2.74249 10.6497 3.05206 11.197 3.59929C11.7443 4.14652 12.054 4.88735 12.059 5.66129C12.0639 6.43523 11.7638 7.17996 11.2235 7.73416Z" fill="#AD7555" stroke="#AD7555" stroke-width="1.17702" stroke-linecap="round" stroke-linejoin="round"/>
</svg>
